<svg xmlns="http://www.w3.org/2000/svg" xmlns:xlink="http://www.w3.org/1999/xlink" width="13" zoomAndPan="magnify" viewBox="0 0 9.75 9.75" height="13" preserveAspectRatio="xMidYMid meet" version="1.0"><defs><clipPath id="8c091cc39d"><path d="M 0 3 L 5 3 L 5 9 L 0 9 Z M 0 3 " clip-rule="nonzero"/></clipPath><clipPath id="48a2c49fba"><path d="M 0 4.59375 L 2.683594 2.109375 L 6.65625 6.40625 L 3.96875 8.890625 Z M 0 4.59375 " clip-rule="nonzero"/></clipPath><clipPath id="82e1dab26d"><path d="M 0 4.59375 L 2.683594 2.109375 L 6.65625 6.40625 L 3.96875 8.890625 Z M 0 4.59375 " clip-rule="nonzero"/></clipPath><clipPath id="9fd3074a1d"><path d="M 2 2 L 7 2 L 7 7 L 2 7 Z M 2 2 " clip-rule="nonzero"/></clipPath><clipPath id="04a6d30ef2"><path d="M 2.082031 2.667969 L 4.765625 0.1875 L 8.734375 4.484375 L 6.050781 6.964844 Z M 2.082031 2.667969 " clip-rule="nonzero"/></clipPath><clipPath id="4886f0df17"><path d="M 2.082031 2.667969 L 4.765625 0.1875 L 8.734375 4.484375 L 6.050781 6.964844 Z M 2.082031 2.667969 " clip-rule="nonzero"/></clipPath></defs><g clip-path="url(#8c091cc39d)"><g clip-path="url(#48a2c49fba)"><g clip-path="url(#82e1dab26d)"><path fill="#18cb96" d="M 4.910156 4.117188 L 1.402344 3.960938 C 0.722656 3.929688 0.609375 5.25 1.410156 5.273438 L 3.597656 5.332031 L 3.429688 7.53125 C 3.378906 8.199219 4.683594 8.269531 4.722656 7.589844 Z M 4.910156 4.117188 " fill-opacity="1" fill-rule="nonzero"/></g></g></g><g clip-path="url(#9fd3074a1d)"><g clip-path="url(#04a6d30ef2)"><g clip-path="url(#4886f0df17)"><path fill="#18cb96" d="M 6.992188 2.195312 L 3.480469 2.039062 C 2.804688 2.007812 2.6875 3.328125 3.492188 3.351562 L 5.675781 3.410156 L 5.511719 5.605469 C 5.460938 6.277344 6.765625 6.347656 6.800781 5.667969 Z M 6.992188 2.195312 " fill-opacity="1" fill-rule="nonzero"/></g></g></g></svg>