<svg xmlns="http://www.w3.org/2000/svg" xmlns:xlink="http://www.w3.org/1999/xlink" width="13" zoomAndPan="magnify" viewBox="0 0 9.75 9.75" height="13" preserveAspectRatio="xMidYMid meet" version="1.0"><defs><clipPath id="bd33e84da8"><path d="M 0 0 L 9.507812 0 L 9.507812 9.507812 L 0 9.507812 Z M 0 0 " clip-rule="nonzero"/></clipPath><clipPath id="d3a3f8a671"><path d="M 0 3 L 5 3 L 5 9 L 0 9 Z M 0 3 " clip-rule="nonzero"/></clipPath><clipPath id="e85003cd91"><path d="M 0 4.59375 L 2.683594 2.109375 L 6.65625 6.40625 L 3.96875 8.890625 Z M 0 4.59375 " clip-rule="nonzero"/></clipPath><clipPath id="86839d39a3"><path d="M 0 4.59375 L 2.683594 2.109375 L 6.65625 6.40625 L 3.96875 8.890625 Z M 0 4.59375 " clip-rule="nonzero"/></clipPath><clipPath id="32e3cd5014"><path d="M 2 2 L 7 2 L 7 7 L 2 7 Z M 2 2 " clip-rule="nonzero"/></clipPath><clipPath id="c25def8145"><path d="M 2.082031 2.667969 L 4.765625 0.1875 L 8.734375 4.484375 L 6.050781 6.964844 Z M 2.082031 2.667969 " clip-rule="nonzero"/></clipPath><clipPath id="2de584cf7d"><path d="M 2.082031 2.667969 L 4.765625 0.1875 L 8.734375 4.484375 L 6.050781 6.964844 Z M 2.082031 2.667969 " clip-rule="nonzero"/></clipPath></defs><g clip-path="url(#bd33e84da8)"><path fill="#ffffff" d="M 0 0 L 9.507812 0 L 9.507812 9.507812 L 0 9.507812 Z M 0 0 " fill-opacity="1" fill-rule="nonzero"/></g><g clip-path="url(#d3a3f8a671)"><g clip-path="url(#e85003cd91)"><g clip-path="url(#86839d39a3)"><path fill="#18cb96" d="M 4.910156 4.117188 L 1.402344 3.960938 C 0.722656 3.929688 0.609375 5.25 1.410156 5.273438 L 3.597656 5.332031 L 3.429688 7.53125 C 3.378906 8.199219 4.683594 8.269531 4.722656 7.589844 Z M 4.910156 4.117188 " fill-opacity="1" fill-rule="nonzero"/></g></g></g><g clip-path="url(#32e3cd5014)"><g clip-path="url(#c25def8145)"><g clip-path="url(#2de584cf7d)"><path fill="#18cb96" d="M 6.992188 2.195312 L 3.480469 2.039062 C 2.804688 2.007812 2.6875 3.328125 3.492188 3.351562 L 5.675781 3.410156 L 5.511719 5.605469 C 5.460938 6.277344 6.765625 6.347656 6.800781 5.667969 Z M 6.992188 2.195312 " fill-opacity="1" fill-rule="nonzero"/></g></g></g></svg>